<svg width="116" height="48" viewBox="0 0 116 48" fill="none" xmlns="http://www.w3.org/2000/svg">
<path d="M51.6036 28.3589C51.6036 31.6129 51.6036 34.8204 51.6036 38.0887C51.7656 38.0887 51.9206 38.0887 52.0757 38.0887C58.0208 38.0887 63.9623 38.0887 69.9074 38.0887C70.383 38.0887 70.383 38.0887 70.383 38.5965C70.383 41.4607 70.3761 44.3214 70.3899 47.1856C70.3933 47.5468 70.2899 47.6326 69.9522 47.6326C60.2161 47.6219 50.4801 47.6219 40.744 47.6326C40.389 47.6326 40.2891 47.5396 40.2891 47.1642C40.2994 31.5986 40.2994 16.0366 40.2891 0.471047C40.2891 0.131344 40.358 0.00976562 40.7164 0.00976562C50.3387 0.0204931 59.9645 0.0204931 69.5869 0.00976562C69.9418 0.00976562 70.0177 0.120616 70.0142 0.467471C70.0004 3.35674 70.0004 6.24601 70.0142 9.1317C70.0142 9.47855 69.9212 9.5608 69.5972 9.5608C63.7659 9.55007 57.9346 9.55365 52.1033 9.55365C51.9448 9.55365 51.7862 9.55365 51.6036 9.55365C51.6036 12.6467 51.6036 15.6969 51.6036 18.8186C51.7552 18.8186 51.9103 18.8186 52.0654 18.8186C56.9283 18.8186 61.7877 18.8222 66.6505 18.8115C67.0055 18.8115 67.1089 18.9009 67.1089 19.2799C67.0951 22.1441 67.0951 25.0048 67.1089 27.869C67.1124 28.2481 67.0365 28.3696 66.6436 28.3696C61.7946 28.3553 56.9455 28.3589 52.0964 28.3589C51.9448 28.3589 51.7966 28.3589 51.6036 28.3589Z" fill="white"/>
<path d="M115.789 47.6268C115.623 47.6268 115.513 47.6268 115.403 47.6268C111.574 47.6268 107.745 47.6232 103.912 47.634C103.564 47.634 103.402 47.5124 103.223 47.2049C101.81 44.7447 100.366 42.3024 98.9393 39.8494C97.5056 37.3857 96.0857 34.9148 94.6589 32.4474C94.6486 32.426 94.6245 32.4152 94.5624 32.358C94.49 32.451 94.4039 32.5333 94.3522 32.637C93.7594 33.8098 93.1735 34.9898 92.5773 36.1627C91.3745 38.5299 90.1683 40.8971 88.962 43.2643C88.2728 44.616 87.5835 45.9676 86.9011 47.3229C86.8115 47.5017 86.7357 47.6304 86.4979 47.6304C82.693 47.6232 78.8882 47.6232 75.0834 47.6232C75.0455 47.6232 75.011 47.6125 74.918 47.5946C75.1627 47.1369 75.3936 46.7007 75.6348 46.2644C76.331 44.9914 77.0306 43.7184 77.7302 42.4454C78.5126 41.0187 79.2983 39.5919 80.0807 38.1652C80.7424 36.9601 81.4041 35.7515 82.0623 34.5464C82.8757 33.0625 83.689 31.5821 84.4989 30.0981C85.2847 28.6571 86.0636 27.2124 86.8459 25.7714C87.4077 24.7415 87.9522 23.701 88.5416 22.6854C88.7139 22.3886 88.7311 22.1634 88.5657 21.8809C87.742 20.4791 86.9252 19.0738 86.1084 17.665C84.9814 15.7233 83.8545 13.7852 82.7241 11.8435C81.6143 9.9376 80.4977 8.03527 79.3879 6.12577C78.3264 4.30568 77.2719 2.48558 76.2138 0.661913C76.1001 0.468818 75.9898 0.272147 75.8588 0.0361429C76.0105 0.0289913 76.1277 0.0182641 76.2448 0.0182641C80.0979 0.0182641 83.9544 0.0218397 87.8075 0.0111122C88.1177 0.0111122 88.2796 0.114812 88.4451 0.397302C90.1338 3.32233 91.8501 6.23663 93.5492 9.1545C94.4315 10.6671 95.2965 12.1904 96.2236 13.8031C96.4407 13.424 96.6337 13.1094 96.7957 12.784C97.547 11.2928 98.2845 9.79457 99.0358 8.29988C100.235 5.9148 101.438 3.52973 102.637 1.14823C102.692 1.03737 102.789 0.937251 102.817 0.819248C103.003 0.0790523 103.495 -0.00676645 104.154 0.0003852C107.624 0.0325676 111.091 0.0146875 114.562 0.0146875C114.696 0.0146875 114.834 0.0146875 115.034 0.0146875C114.827 0.425907 114.651 0.797794 114.455 1.15538C113.521 2.86105 112.584 4.56314 111.65 6.26881C110.45 8.44649 109.251 10.6242 108.055 12.8054C107.262 14.2572 106.48 15.7161 105.687 17.1644C104.695 18.9809 103.692 20.7902 102.696 22.6068C102.527 22.9179 102.389 23.2468 102.203 23.5472C102.051 23.7904 102.096 23.9906 102.227 24.2159C103.43 26.272 104.626 28.3317 105.825 30.3913C106.945 32.3223 108.062 34.2532 109.185 36.1806C110.378 38.2295 111.581 40.2713 112.773 42.3203C113.762 44.0188 114.745 45.7245 115.73 47.4266C115.758 47.4731 115.761 47.5267 115.789 47.6268Z" fill="white"/>
<path d="M29.1996 22.9326C30.106 23.9196 31.0779 24.8242 31.8637 25.8755C32.7839 27.1092 33.194 28.6182 33.4421 30.1451C33.5938 31.0855 33.6696 32.0403 33.7454 32.9914C33.8005 33.6565 33.8454 34.3252 33.8178 34.9903C33.7144 37.5327 33.3215 40.0072 32.0567 42.2457C31.3881 43.4293 30.5092 44.4162 29.4409 45.2315C27.9727 46.3507 26.3357 47.0194 24.5366 47.2375C23.3752 47.3805 22.2103 47.5272 21.0454 47.5379C14.4456 47.5915 7.84919 47.6022 1.24935 47.6273C0.756513 47.6309 0.756513 47.6273 0.756513 47.098C0.756513 45.6534 0.746174 44.2088 0.766852 42.7641C0.770299 42.5675 0.887476 42.31 1.03222 42.1849C2.70373 40.7581 4.38901 39.3492 6.07775 37.9404C7.92846 36.3992 9.78951 34.8687 11.6368 33.324C13.0153 32.169 14.3767 30.9925 15.7552 29.8375C17.0752 28.7326 18.409 27.6456 19.7324 26.5406C20.7008 25.7325 21.6623 24.9136 22.6239 24.0983C23.196 23.6156 23.7474 23.1007 24.3436 22.6501C24.6642 22.4106 24.5229 22.314 24.3092 22.1602C23.2305 21.3843 22.1483 20.6083 21.073 19.8252C18.7088 18.1053 16.3515 16.3781 13.9872 14.6653C11.299 12.7165 8.60396 10.7784 5.91921 8.83314C4.26839 7.63524 2.62101 6.43377 0.983975 5.21799C0.866798 5.13217 0.766852 4.9355 0.763406 4.78889C0.746174 3.48729 0.763406 2.18569 0.746174 0.880509C0.742728 0.547957 0.849566 0.47644 1.1494 0.47644C6.61883 0.483592 12.0917 0.483592 17.5611 0.483592C18.1711 0.483592 18.7812 0.472866 19.3877 0.487169C21.2832 0.526503 23.1788 0.630202 25.026 1.11294C26.6045 1.52773 28.0347 2.26078 29.2754 3.38359C31.1847 5.10713 32.1739 7.3456 32.7046 9.85225C33.0423 11.4471 33.0596 13.0633 32.9803 14.6725C32.8976 16.3674 32.5392 18.0302 31.7913 19.557C31.2123 20.7335 30.4955 21.8205 29.4615 22.6394C29.3926 22.693 29.334 22.7646 29.2754 22.8289C29.2306 22.8861 29.1858 22.9469 29.1996 22.9326Z" fill="white"/>
<path d="M18.2471 22.6348C12.4089 27.523 6.61209 32.3754 0.777344 37.26C0.777344 28.1452 0.777344 19.0876 0.777344 9.9657C6.60175 14.1887 12.402 18.3939 18.2471 22.6348Z" fill="white"/>
</svg>
