<svg width="35" height="35" viewBox="0 0 35 35" fill="none" xmlns="http://www.w3.org/2000/svg">
<path d="M11.6667 17.5L11.6667 11.6667C11.6667 8.44501 14.2783 5.83334 17.5 5.83334V5.83334C20.7217 5.83334 23.3333 8.44501 23.3333 11.6667L23.3333 17.5" stroke="white" stroke-width="2" stroke-linecap="round"/>
<path d="M5.52768 16.7928C5.67276 15.0519 5.74529 14.1815 6.31938 13.6532C6.89347 13.125 7.76693 13.125 9.51386 13.125H25.4861C27.2331 13.125 28.1065 13.125 28.6806 13.6532C29.2547 14.1815 29.3272 15.0519 29.4723 16.7928L30.4445 28.4589C30.529 29.4724 30.5712 29.9792 30.2741 30.3021C29.977 30.625 29.4685 30.625 28.4514 30.625H6.5486C5.53155 30.625 5.02302 30.625 4.72592 30.3021C4.42882 29.9792 4.47105 29.4724 4.55551 28.4589L5.52768 16.7928Z" stroke="white" stroke-width="2"/>
</svg>
