<svg width="27" height="19" viewBox="0 0 27 19" fill="none" xmlns="http://www.w3.org/2000/svg">
<path d="M0 1.35092C0 0.604829 0.604416 0 1.35 0H25.65C26.3956 0 27 0.604829 27 1.35092C27 2.09702 26.3956 2.70185 25.65 2.70185H1.35C0.604416 2.70185 0 2.09702 0 1.35092Z" fill="white"/>
<path d="M0 9.5C0 8.75391 0.604416 8.14908 1.35 8.14908H25.65C26.3956 8.14908 27 8.75391 27 9.5C27 10.2461 26.3956 10.8509 25.65 10.8509H1.35C0.604416 10.8509 0 10.2461 0 9.5Z" fill="white"/>
<path d="M1.35 16.2982C0.604416 16.2982 0 16.903 0 17.6491C0 18.3952 0.604416 19 1.35 19H25.65C26.3956 19 27 18.3952 27 17.6491C27 16.903 26.3956 16.2982 25.65 16.2982H1.35Z" fill="white"/>
</svg>
